<?xml version="1.0" encoding="UTF-8" standalone="no"?>
<!-- Created with Inkscape (http://www.inkscape.org/) -->

<svg
   width="200mm"
   height="200mm"
   viewBox="0 0 200 199.99999"
   version="1.1"
   id="svg1"
   xml:space="preserve"
   sodipodi:docname="ic_launcher_round.svg"
   inkscape:version="1.4.4 (dcaf3e7, 2026-05-05)"
   xmlns:inkscape="http://www.inkscape.org/namespaces/inkscape"
   xmlns:sodipodi="http://sodipodi.sourceforge.net/DTD/sodipodi-0.dtd"
   xmlns="http://www.w3.org/2000/svg"
   xmlns:svg="http://www.w3.org/2000/svg"><sodipodi:namedview
     id="namedview1"
     pagecolor="#ffffff"
     bordercolor="#000000"
     borderopacity="0.25"
     inkscape:showpageshadow="2"
     inkscape:pageopacity="0.0"
     inkscape:pagecheckerboard="0"
     inkscape:deskcolor="#d1d1d1"
     inkscape:document-units="mm"
     inkscape:zoom="0.51089934"
     inkscape:cx="321.00257"
     inkscape:cy="530.43717"
     inkscape:window-width="1512"
     inkscape:window-height="921"
     inkscape:window-x="0"
     inkscape:window-y="33"
     inkscape:window-maximized="1"
     inkscape:current-layer="layer1"><inkscape:page
       x="0"
       y="0"
       width="200"
       height="199.99998"
       id="page2"
       margin="0"
       bleed="0" /></sodipodi:namedview><defs
     id="defs1" /><g
     inkscape:label="Layer 1"
     inkscape:groupmode="layer"
     id="layer1"
     transform="translate(53.730219,2.5367294)"><g
       id="g7"
       transform="matrix(0.78744275,0,0,0.78823017,-41.348807,4.0806628)"><path
         style="fill:#000000;stroke-width:0.711682"
         d="M 103.66151,200.48918 C 41.958929,194.08018 8.4434355,125.04237 42.005252,73.484841 76.454014,20.564798 156.19706,24.427862 184.77215,80.401023 214.23984,138.12262 167.6282,207.13335 103.66151,200.48918 Z m 16.0484,-4.23861 C 179.31509,189.71443 209.71477,119.44204 173.59312,71.693351 134.55738,20.092585 52.491378,36.206658 36.233259,98.664644 22.607162,151.01133 66.314242,202.1058 119.70991,196.25057 Z"
         id="path6" /><path
         style="fill:#000000;stroke-width:0.7"
         d="m 91.363355,89.650262 c -0.148267,-0.483861 -1.443323,-4.329374 -2.877903,-8.545586 -1.43458,-4.216219 -2.608333,-7.690006 -2.608333,-7.719525 0,-0.02954 -0.270312,0.02387 -0.600705,0.118608 -4.541222,1.302408 -7.919688,-4.549244 -4.690294,-8.123801 3.582432,-3.965325 10.012485,0.11802 8.092049,5.138784 -0.29666,0.775579 -0.333389,1.044295 -0.158305,1.15815 1.805748,1.174208 12.799406,6.632719 12.934906,6.422362 0.0907,-0.140812 1.09477,-2.006242 2.23124,-4.1454 1.13648,-2.13916 2.89687,-5.427858 3.91197,-7.308226 1.13497,-2.102387 1.76167,-3.446842 1.62755,-3.491544 -4.01144,-1.337147 -3.57317,-8.14828 0.60413,-9.388806 5.18367,-1.539384 8.80173,5.547101 4.44196,8.700195 -1.00178,0.7245 -1.1404,0.243019 1.54263,5.35822 2.48731,4.742045 5.46092,10.346898 5.54676,10.454873 0.0481,0.06055 12.64525,-6.457922 12.98906,-6.721255 0.0225,-0.01729 -0.13668,-0.390446 -0.35381,-0.829304 -2.30759,-4.664065 3.9315,-9.210488 7.69701,-5.608813 3.58868,3.432548 0.37823,9.721434 -4.28066,8.385279 -0.77456,-0.222138 -0.27348,-1.499792 -5.82368,14.849326 l -0.73878,2.176202 H 111.24154 91.632932 Z"
         id="path5" /><path
         style="fill:#000000;stroke-width:0.7"
         d="m 107.10911,181.83477 c -30.746124,-2.76651 -50.498276,-26.98545 -43.348861,-53.15186 0.264411,-0.9677 0.520058,-1.93436 0.56812,-2.1481 0.07356,-0.32717 -0.08145,-0.45714 -0.980196,-0.82192 -9.461795,-3.84026 -14.360339,-15.94534 -10.452533,-25.829867 6.38589,-16.152661 28.274834,-18.358375 36.340682,-3.661994 0.406567,0.740789 0.798826,1.346891 0.871689,1.346891 0.07286,0 0.847217,-0.288211 1.720789,-0.640458 11.70922,-4.721542 27.13283,-4.677001 39.20666,0.113225 0.75142,0.298123 1.38372,0.517874 1.40511,0.488334 0.0214,-0.02954 0.31575,-0.545349 0.65414,-1.146243 6.62138,-11.757928 22.79176,-13.579412 32.2904,-3.637291 9.62482,10.074173 6.3899,27.587583 -6.07421,32.884893 -1.05032,0.4464 -1.22852,0.5871 -1.15315,0.91052 0.049,0.2104 0.34436,1.466 0.6563,2.79024 6.92311,29.39007 -18.75827,55.46814 -51.70494,52.50363 z m 9.52103,-8.86218 c 18.3437,-4.22582 21.2661,-24.8117 4.70325,-33.13057 -11.59944,-5.82595 -26.477244,-0.21717 -30.342735,11.43891 -4.272569,12.88358 10.312115,25.2226 25.639485,21.69166 z M 89.790078,141.39216 c 2.464007,-1.19351 3.772202,-4.67654 2.761675,-7.3529 -2.175824,-5.76263 -9.74022,-4.16903 -9.74022,2.05199 0,4.20867 3.595312,6.93967 6.978545,5.30091 z m 46.954752,0.007 c 3.86208,-2.00475 3.93646,-8.28964 0.12238,-10.34082 -5.1273,-2.75743 -9.81701,4.60672 -5.8274,9.15065 1.34448,1.53128 3.98618,2.08238 5.70502,1.19017 z M 71.841602,111.7776 c 2.549848,-3.3948 7.543984,-8.13231 10.05298,-9.53642 0.291914,-0.16336 0.270627,-0.25105 -0.24052,-0.99088 -4.197095,-6.074833 -11.434927,-6.922197 -16.442496,-1.924995 -5.185691,5.174945 -4.415551,13.656765 1.605065,17.677175 l 1.128428,0.75354 1.098118,-1.85735 c 0.603967,-1.02153 1.86326,-2.87602 2.798425,-4.12107 z m 85.522508,3.76498 c 8.64724,-8.66719 -0.65639,-23.485046 -11.58175,-18.446215 -1.64547,0.758898 -3.10469,1.95426 -4.16719,3.413665 -1.07667,1.47887 -1.0751,1.48671 0.53709,2.69286 4.69223,3.5105 8.80734,8.08999 11.42675,12.71625 l 1.02474,1.80984 0.68254,-0.39395 c 0.37539,-0.21667 1.31041,-1.02327 2.07782,-1.79245 z"
         id="path4" /><path
         style="fill:#000000;stroke-width:0.7"
         d="m 108.7005,167.28357 c -2.89179,-0.77765 -6.68688,-4.63213 -6.68688,-6.79153 0,-0.16375 -0.48894,-0.59391 -1.09034,-0.95923 -2.64193,-1.60489 -3.51833,-3.75629 -2.037697,-5.00217 1.167437,-0.98232 2.111527,-0.64973 3.553007,1.2517 2.42877,3.20373 6.98337,1.31552 6.98337,-2.89511 v -1.74326 l -1.19362,-0.5876 c -6.37896,-3.14036 -3.80615,-9.07343 3.76303,-8.67779 6.77282,0.35401 8.08312,6.15828 1.99788,8.85008 l -0.86313,0.3818 v 1.76001 c 0,4.48643 4.93231,6.20275 7.37781,2.56729 0.99836,-1.48415 2.0976,-1.79985 3.15855,-0.90712 1.48933,1.25319 0.55712,3.48138 -2.1041,5.02925 -0.74302,0.43218 -0.96197,0.67791 -1.13428,1.27306 -1.4032,4.84655 -6.74952,7.78823 -11.7236,6.45062 z"
         id="path12" /></g></g></svg>
